<svg width="1920" height="1080" viewBox="0 0 1920 1080" fill="none" xmlns="http://www.w3.org/2000/svg">
<rect width="1920" height="1080" fill="white"/>
<path d="M527.267 432.003C525.594 433.117 522.807 437.716 520.995 442.176L517.79 450.12L517.372 545.167L516.954 640.214L520.577 641.189C522.528 641.607 531.726 641.468 541.203 640.911L558.206 639.656L558.345 576.663C558.345 539.453 558.902 513.392 559.739 513.392C560.435 513.252 570.748 530.394 582.594 551.438C594.44 572.482 606.008 592.412 608.098 595.617C614.37 604.954 621.059 606.069 631.512 599.24C637.365 595.478 643.218 586.976 655.064 565.096C670.673 536.387 684.888 512.137 686.143 512.555C686.839 512.695 687.397 541.683 687.536 576.942L687.815 641.05L706.629 640.632C717.918 640.353 725.862 639.517 726.28 638.681C726.837 637.845 727.395 591.575 727.395 535.969C727.673 454.998 727.255 434.372 725.862 432.699C724.329 431.027 720.844 430.748 707.047 431.027L689.905 431.445L683.495 443.57C676.666 456.252 657.155 492.348 641.128 521.893C635.832 531.509 629.839 542.937 627.609 547.397C623.01 556.734 623.01 556.734 615.903 542.798C603.778 518.688 556.951 435.765 554.025 433.117C551.237 430.748 548.868 430.191 540.367 430.051C533.399 430.051 529.218 430.609 527.267 432.003Z" fill="black"/>
<path d="M765.442 527.055L765.86 622.938L768.926 627.955C770.737 630.743 774.779 634.784 777.984 637.014L783.698 641.056H838.887C898.117 641.056 902.437 640.638 916.374 633.669C938.951 622.381 947.313 606.214 946.058 575.415C945.64 563.29 944.944 559.109 942.435 554.51C938.115 546.009 932.679 540.155 924.457 534.86C920.415 532.351 917.071 529.564 917.071 528.867C917.071 528.17 919.022 525.383 921.252 522.735C929.892 512.979 931.704 506.569 931.704 485.664C931.704 468.522 931.286 466.153 928.22 459.881C921.67 446.642 909.266 437.583 891.706 433.402C884.738 431.73 871.08 431.311 823.975 431.311H765.023L765.442 527.055ZM880.836 468.661C882.787 469.637 885.992 472.703 887.804 475.49C890.731 479.81 891.288 482.18 891.149 490.542C891.149 501.83 888.083 509.356 881.672 514.094C878.048 516.882 875.958 517.021 842.789 517.021H807.669L807.251 493.329C807.112 480.368 807.251 468.94 807.669 467.825C808.645 465.177 875.54 466.013 880.836 468.661ZM894.354 554.928C897.281 556.322 899.929 559.109 901.88 563.29C904.528 568.725 904.806 571.094 904.11 580.711C903.273 593.532 901.044 597.853 892.96 601.755C888.361 604.124 883.066 604.403 850.454 604.96C829.967 605.378 811.85 605.239 810.178 604.681C806.972 603.845 806.972 603.567 806.972 578.481C806.972 564.405 807.251 552.698 807.53 552.42C807.808 552.141 826.483 552.001 848.921 552.28C882.09 552.698 890.591 553.116 894.354 554.928Z" fill="black"/>
<path d="M422.141 644.227L404.757 594.444C404.626 594.07 404.627 593.663 404.759 593.29L474.698 395.228C474.944 394.532 475.602 394.066 476.341 394.066L517.877 394.061C519.096 394.061 519.939 395.281 519.506 396.421L425.415 644.271C424.837 645.791 422.677 645.762 422.141 644.227Z" fill="url(#paint0_linear_86_4)"/>
<path d="M347.592 434.899L309.505 434.89C308.291 434.889 307.449 436.1 307.872 437.238L379.211 629.449C382.942 639.501 392.434 646.254 403.153 646.482L423.783 646.921C425.009 646.947 425.877 645.732 425.456 644.581L349.228 436.043C348.976 435.356 348.323 434.899 347.592 434.899Z" fill="url(#paint1_linear_86_4)"/>
<path d="M1023.37 642.432C1014.66 642.432 1007.68 640.165 1002.43 635.631C997.303 631.097 994.738 625.013 994.738 617.377V611.65C994.738 604.134 997.422 598.109 1002.79 593.575C1008.16 589.041 1015.26 586.774 1024.09 586.774H1035.54C1039.48 586.774 1043.53 587.371 1047.71 588.564C1051.89 589.757 1055.47 591.368 1058.45 593.396V578.542C1058.45 573.531 1056.9 569.475 1053.8 566.373C1050.69 563.151 1046.58 561.541 1041.45 561.541H1027.13C1022 561.541 1017.88 562.734 1014.78 565.12C1011.68 567.506 1010.13 570.668 1010.13 574.605H997.243C997.243 567.327 999.987 561.481 1005.48 557.067C1010.96 552.533 1018.18 550.266 1027.13 550.266H1041.45C1050.28 550.266 1057.37 552.891 1062.74 558.14C1068.23 563.271 1070.98 570.071 1070.98 578.542V641H1058.81V628.473C1056.06 632.768 1052.42 636.168 1047.89 638.673C1043.48 641.179 1038.88 642.432 1034.11 642.432H1023.37ZM1034.47 631.157C1040.07 631.157 1045.09 629.427 1049.5 625.967C1053.91 622.507 1056.9 617.914 1058.45 612.187V605.565C1056.06 603.299 1052.72 601.509 1048.43 600.197C1044.25 598.765 1039.96 598.049 1035.54 598.049H1024.09C1019.2 598.049 1015.2 599.302 1012.1 601.807C1009.11 604.313 1007.62 607.594 1007.62 611.65V617.377C1007.62 621.553 1009.05 624.893 1011.92 627.399C1014.78 629.904 1018.6 631.157 1023.37 631.157H1034.47ZM1124.78 642.432C1118.7 642.432 1113.27 641 1108.5 638.137C1103.73 635.273 1100.03 631.276 1097.4 626.146C1094.78 621.016 1093.46 615.05 1093.46 608.25V586.774C1093.46 579.616 1094.84 573.293 1097.58 567.804C1100.33 562.197 1104.2 557.902 1109.21 554.919C1114.22 551.817 1119.95 550.266 1126.39 550.266H1139.64C1143.69 550.266 1147.57 551.22 1151.27 553.129C1155.09 555.038 1158.13 557.663 1160.4 561.004V515.726H1173.28V641H1160.75V627.757C1158.01 632.171 1154.43 635.75 1150.02 638.495C1145.6 641.119 1141.31 642.432 1137.13 642.432H1124.78ZM1136.77 630.978C1140.59 630.978 1144.29 629.785 1147.87 627.399C1151.45 624.893 1154.37 621.672 1156.64 617.735C1158.91 613.798 1160.16 609.741 1160.4 605.565V583.016C1159.56 576.693 1157.18 571.563 1153.24 567.625C1149.42 563.688 1144.77 561.72 1139.28 561.72H1126.75C1120.67 561.72 1115.72 564.046 1111.9 568.699C1108.2 573.233 1106.35 579.258 1106.35 586.774V608.25C1106.35 614.931 1108.08 620.419 1111.54 624.714C1115.12 628.89 1119.65 630.978 1125.14 630.978H1136.77ZM1231.47 641C1226.46 641 1222.82 637.958 1220.55 631.873L1189.77 551.698H1203.37L1230.93 626.862H1231.11L1258.67 551.698H1272.27L1237.55 641H1231.47ZM1298.43 538.276C1295.57 538.276 1293.24 537.381 1291.45 535.591C1289.66 533.801 1288.76 531.475 1288.76 528.612C1288.76 525.748 1289.66 523.422 1291.45 521.632C1293.24 519.842 1295.57 518.948 1298.43 518.948C1301.29 518.948 1303.62 519.842 1305.41 521.632C1307.2 523.422 1308.09 525.748 1308.09 528.612C1308.09 531.475 1307.2 533.801 1305.41 535.591C1303.62 537.381 1301.29 538.276 1298.43 538.276ZM1291.99 551.698H1304.87V641H1291.99V551.698ZM1360.67 642.432C1351.6 642.432 1344.32 639.867 1338.83 634.736C1333.34 629.606 1330.6 622.865 1330.6 614.514H1343.13C1343.13 619.524 1344.74 623.581 1347.96 626.683C1351.18 629.785 1355.42 631.336 1360.67 631.336H1376.24C1381.37 631.336 1385.54 630.322 1388.76 628.294C1391.98 626.146 1393.59 623.402 1393.59 620.061V613.977C1393.59 611.71 1392.7 609.741 1390.91 608.071C1389.12 606.281 1386.79 605.088 1383.93 604.492L1352.97 599.123C1346.77 598.049 1341.76 595.722 1337.94 592.143C1334.24 588.445 1332.39 584.15 1332.39 579.258V573.352C1332.39 566.432 1335.01 560.884 1340.26 556.709C1345.51 552.414 1352.43 550.266 1361.02 550.266H1376.41C1384.77 550.266 1391.51 552.652 1396.64 557.424C1401.77 562.078 1404.33 568.282 1404.33 576.037H1391.81C1391.69 571.622 1390.19 568.103 1387.33 565.478C1384.59 562.734 1380.95 561.362 1376.41 561.362H1361.02C1356.25 561.362 1352.43 562.495 1349.57 564.762C1346.71 566.91 1345.28 569.773 1345.28 573.352V578.542C1345.28 580.809 1346.23 582.837 1348.14 584.627C1350.17 586.416 1352.73 587.55 1355.83 588.027L1386.62 593.396C1392.58 594.47 1397.35 596.796 1400.93 600.376C1404.63 603.955 1406.48 608.25 1406.48 613.261V620.419C1406.48 626.981 1403.68 632.29 1398.07 636.347C1392.58 640.403 1385.3 642.432 1376.24 642.432H1360.67ZM1457.94 642.432C1447.92 642.432 1439.86 639.33 1433.78 633.126C1427.69 626.922 1424.65 618.749 1424.65 608.608V584.09C1424.65 573.949 1427.69 565.776 1433.78 559.572C1439.98 553.368 1448.15 550.266 1458.3 550.266H1472.97C1483.11 550.266 1491.22 553.368 1497.31 559.572C1503.51 565.776 1506.62 573.949 1506.62 584.09V608.608C1506.62 618.749 1503.51 626.922 1497.31 633.126C1491.11 639.33 1482.87 642.432 1472.61 642.432H1457.94ZM1472.61 630.978C1479.06 630.978 1484.19 628.95 1488 624.893C1491.82 620.718 1493.73 615.289 1493.73 608.608V584.09C1493.73 577.409 1491.82 572.04 1488 567.983C1484.19 563.807 1479.17 561.72 1472.97 561.72H1458.3C1452.09 561.72 1447.08 563.807 1443.26 567.983C1439.44 572.04 1437.54 577.409 1437.54 584.09V608.608C1437.54 615.408 1439.39 620.837 1443.08 624.893C1446.78 628.95 1451.73 630.978 1457.94 630.978H1472.61ZM1530.29 551.698H1542.82V565.478C1545.21 561.302 1548.79 557.902 1553.56 555.277C1558.45 552.652 1563.52 551.34 1568.77 551.34H1576.65V562.972H1568.77C1561.14 562.972 1554.93 565.418 1550.16 570.31C1545.51 575.082 1543.18 581.465 1543.18 589.459V641H1530.29V551.698ZM1593.53 642.79C1590.66 642.79 1588.34 641.895 1586.55 640.105C1584.76 638.316 1583.86 635.989 1583.86 633.126C1583.86 630.262 1584.76 627.936 1586.55 626.146C1588.34 624.356 1590.66 623.462 1593.53 623.462C1596.39 623.462 1598.72 624.356 1600.51 626.146C1602.3 627.936 1603.19 630.262 1603.19 633.126C1603.19 635.989 1602.3 638.316 1600.51 640.105C1598.72 641.895 1596.39 642.79 1593.53 642.79Z" fill="black"/>
<defs>
<linearGradient id="paint0_linear_86_4" x1="463.552" y1="639.791" x2="457.752" y2="393.569" gradientUnits="userSpaceOnUse">
<stop stop-color="#188AB7"/>
<stop offset="1" stop-color="#2ED1FF"/>
</linearGradient>
<linearGradient id="paint1_linear_86_4" x1="370.15" y1="396.989" x2="370.15" y2="646.975" gradientUnits="userSpaceOnUse">
<stop offset="1"/>
</linearGradient>
</defs>
</svg>
